<svg version="1.1" viewBox="0 0 100 100" 
   xmlns="http://www.w3.org/2000/svg">
   <g transform="matrix(3.8361 0 0 3.8361 -2.8061 -9.1771e-6)" fill="#333" fill-rule="evenodd">
      <g transform="translate(-425,-343)" fill="#333">
         <path d="m441.28 356.04 9.9968-9.9957c0.69973-0.69973 0.69546-1.8208 0-2.5173-0.69654-0.69973-1.8176-0.6912-2.5131 0l-9.9957 9.9957-9.9957-9.9957c-0.69973-0.69973-1.8208-0.69546-2.5131 0-0.69974 0.7008-0.69547 1.8208 0 2.5173l9.9968 9.9957-9.9968 9.9915c-0.69974 0.69974-0.69547 1.8208 0 2.5163 0.69653 0.7008 1.8176 0.69654 2.5131 0l9.9957-9.9957 9.9957 9.9957c0.69973 0.7008 1.8208 0.69654 2.5131 0 0.69973-0.69973 0.69546-1.8208 0-2.5163z" fill="#333"/>
      </g>
   </g>
</svg>
