<?xml version="1.0" encoding="UTF-8" standalone="no"?>
<svg
   xmlns:dc="http://purl.org/dc/elements/1.1/"
   xmlns:cc="http://creativecommons.org/ns#"
   xmlns:rdf="http://www.w3.org/1999/02/22-rdf-syntax-ns#"
   xmlns:svg="http://www.w3.org/2000/svg"
   xmlns="http://www.w3.org/2000/svg"
   version="1.1"
   x="0px"
   y="0px"
   viewBox="0 0 512 512"
   enable-background="new 0 0 100 100"
   xml:space="preserve"
   id="svg10"
   width="512"
   height="512"><metadata
     id="metadata16"><rdf:RDF><cc:Work
         rdf:about=""><dc:format>image/svg+xml</dc:format><dc:type
           rdf:resource="http://purl.org/dc/dcmitype/StillImage" /><dc:title></dc:title></cc:Work></rdf:RDF></metadata><defs
     id="defs14" /><rect
     y="56.000004"
     x="56.000004"
     height="400"
     width="400"
     id="rect4594"
     style="fill:#ffffff;fill-opacity:1;stroke-width:0;stroke-miterlimit:4;stroke-dasharray:none" /><g
     id="g4"
     transform="matrix(4.4444444,0,0,4.4444444,33.77778,33.77778)"
     style="fill:#008160;fill-opacity:1;stroke-width:0;stroke-miterlimit:4;stroke-dasharray:none"><path
       d="M 5,5 V 95 H 95 V 5 Z m 48.425,21.389 v -6.454 h 6.007 v 6.454 z m 6.007,0.424 v 6.454 h -6.007 v -6.454 z m 10.853,-0.958 c 2.186,0 3.951,1.77 3.951,3.952 0,2.184 -1.768,3.951 -3.951,3.951 -2.182,0 -3.949,-1.768 -3.949,-3.951 0,-2.182 1.768,-3.952 3.949,-3.952 z m -3.949,-9.338 c 0,-2.184 1.768,-3.954 3.949,-3.954 2.186,0 3.951,1.771 3.951,3.954 0,2.183 -1.768,3.95 -3.951,3.95 -2.181,0 -3.949,-1.768 -3.949,-3.95 z m 17.242,9.338 c 2.181,0 3.951,1.77 3.951,3.952 0,2.184 -1.771,3.951 -3.951,3.951 -2.182,0 -3.953,-1.768 -3.953,-3.951 0,-2.182 1.771,-3.952 3.953,-3.952 z m -3.953,-9.338 c 0,-2.184 1.771,-3.954 3.953,-3.954 2.181,0 3.951,1.771 3.951,3.954 0,2.183 -1.771,3.95 -3.951,3.95 -2.182,0 -3.953,-1.768 -3.953,-3.95 z m -26.2,23.628 v -6.453 h 6.007 v 6.453 z m 6.429,6.429 v -6.005 h 6.453 v 6.005 z m 6.876,0 v -6.005 h 6.455 v 6.005 z m 6.879,0 v -6.005 h 6.453 v 6.005 z m 6.879,0 v -6.005 h 6.455 v 6.005 z M 70.285,74.145 c -2.182,0 -3.949,-1.768 -3.949,-3.951 0,-2.183 1.768,-3.95 3.949,-3.95 2.186,0 3.951,1.768 3.951,3.95 0,2.183 -1.765,3.951 -3.951,3.951 z m 3.951,9.339 c 0,2.184 -1.768,3.951 -3.951,3.951 -2.182,0 -3.949,-1.769 -3.949,-3.951 0,-2.184 1.768,-3.95 3.949,-3.95 2.186,0 3.951,1.768 3.951,3.95 z M 80.063,53.43 v 6.002 H 73.61 V 53.43 Z m -6.877,0 v 6.002 H 66.73 V 53.43 Z m 10.392,20.715 c -2.182,0 -3.953,-1.768 -3.953,-3.951 0,-2.183 1.771,-3.95 3.953,-3.95 2.181,0 3.951,1.768 3.951,3.95 0,2.183 -1.77,3.951 -3.951,3.951 z m 3.951,9.339 c 0,2.184 -1.771,3.951 -3.951,3.951 -2.182,0 -3.953,-1.769 -3.953,-3.951 0,-2.184 1.771,-3.95 3.953,-3.95 2.181,0 3.951,1.768 3.951,3.95 z M 66.307,53.43 v 6.002 H 59.854 V 53.43 Z m 26.756,0 v 6.002 H 87.369 V 53.43 Z m -5.696,-0.424 v -6.008 h 5.695 v 6.008 z m 5.696,-6.432 h -5.694 v -6.005 h 5.694 z M 53.425,6.936 h 6.007 v 5.698 h -6.007 z m -6.429,0 h 6.006 v 5.698 h -6.006 z m -6.429,0 h 6.005 v 5.698 h -6.005 z m 0,6.123 h 6.005 v 6.451 h -6.005 z m 0,6.876 h 6.005 v 6.454 h -6.005 z m 0,6.878 h 6.005 v 6.454 h -6.005 z m 0,6.878 h 6.005 v 6.453 H 40.567 Z M 40.143,53.43 v 6.002 H 33.69 V 53.43 Z m -6.877,0 v 6.002 H 26.811 V 53.43 Z m -6.879,0 v 6.002 H 19.934 V 53.43 Z m -6.877,0 v 6.002 H 13.054 V 53.43 Z m 0.425,-6.856 v -6.005 h 6.453 v 6.005 z m 6.876,0 v -6.005 h 6.455 v 6.005 z M 16.612,25.855 c 2.18,0 3.953,1.768 3.953,3.951 0,2.182 -1.772,3.951 -3.953,3.951 -2.183,0 -3.953,-1.77 -3.953,-3.951 0,-2.183 1.77,-3.951 3.953,-3.951 z m -3.953,-9.339 c 0,-2.184 1.77,-3.953 3.953,-3.953 2.18,0 3.953,1.77 3.953,3.953 0,2.182 -1.772,3.95 -3.953,3.95 -2.183,0 -3.953,-1.769 -3.953,-3.95 z m 17.246,9.339 c 2.181,0 3.951,1.768 3.951,3.951 0,2.182 -1.77,3.951 -3.951,3.951 -2.186,0 -3.955,-1.77 -3.955,-3.951 0,-2.183 1.769,-3.951 3.955,-3.951 z M 25.95,16.516 c 0,-2.184 1.769,-3.953 3.955,-3.953 2.181,0 3.951,1.77 3.951,3.953 0,2.182 -1.77,3.95 -3.951,3.95 -2.186,0 -3.955,-1.769 -3.955,-3.95 z m 7.74,30.058 v -6.005 h 6.453 v 6.005 z m -26.753,0 v -6.005 h 5.693 v 6.005 z m 5.693,0.424 v 6.008 H 6.937 V 46.998 Z M 6.937,53.43 h 5.693 v 6.002 H 6.937 Z m 39.635,20.181 v 6.453 h -6.005 v -6.453 z m -6.005,-0.423 v -6.453 h 6.005 v 6.453 z m -10.662,0.957 c -2.186,0 -3.955,-1.771 -3.955,-3.953 0,-2.182 1.769,-3.95 3.955,-3.95 2.181,0 3.951,1.769 3.951,3.95 0,2.182 -1.771,3.953 -3.951,3.953 z m 3.95,9.337 c 0,2.184 -1.77,3.953 -3.951,3.953 -2.186,0 -3.955,-1.771 -3.955,-3.953 0,-2.182 1.769,-3.951 3.955,-3.951 2.181,0 3.951,1.77 3.951,3.951 z M 16.612,74.145 c -2.183,0 -3.953,-1.771 -3.953,-3.953 0,-2.182 1.77,-3.95 3.953,-3.95 2.18,0 3.953,1.769 3.953,3.95 0,2.182 -1.773,3.953 -3.953,3.953 z m 3.953,9.337 c 0,2.184 -1.772,3.953 -3.953,3.953 -2.183,0 -3.953,-1.771 -3.953,-3.953 0,-2.182 1.77,-3.951 3.953,-3.951 2.18,0 3.953,1.77 3.953,3.951 z M 46.572,59.855 v 6.455 h -6.005 v -6.455 z m 0,33.209 h -6.005 v -5.696 h 6.005 z m 6.43,0 h -6.006 v -5.696 h 6.006 z m 6.43,0 h -6.007 v -5.696 h 6.007 z m 0,-6.121 H 53.425 V 80.49 h 6.007 z m 0,-6.879 h -6.007 v -6.453 h 6.007 z m 0,-6.876 h -6.007 v -6.453 h 6.007 z m 0,-6.875 h -6.007 v -6.457 h 6.007 z M 58.658,59.432 50.093,50.867 41.53,59.432 H 40.567 V 58.663 L 49.229,50 40.567,41.335 v -0.766 h 0.966 l 8.56,8.563 8.565,-8.563 h 0.771 v 0.957 L 50.959,50 59.43,58.473 v 0.959 z"
       id="path2"
       style="fill:#008160;fill-opacity:1;stroke-width:0;stroke-miterlimit:4;stroke-dasharray:none" /></g></svg>