<?xml version="1.0" encoding="UTF-8" standalone="no"?>
<svg
   xmlns:dc="http://purl.org/dc/elements/1.1/"
   xmlns:cc="http://creativecommons.org/ns#"
   xmlns:rdf="http://www.w3.org/1999/02/22-rdf-syntax-ns#"
   xmlns:svg="http://www.w3.org/2000/svg"
   xmlns="http://www.w3.org/2000/svg"
   height="48"
   width="48"
   id="svg38"
   xml:space="preserve"
   viewBox="0 0 48 48"
   y="0px"
   x="0px"
   version="1.1"><metadata
     id="metadata44"><rdf:RDF><cc:Work
         rdf:about=""><dc:format>image/svg+xml</dc:format><dc:type
           rdf:resource="http://purl.org/dc/dcmitype/StillImage" /><dc:title></dc:title></cc:Work></rdf:RDF></metadata><defs
     id="defs42" /><style
     id="style2"
     type="text/css">
	.st0{fill:none;stroke:#000000;stroke-width:2;stroke-linecap:round;stroke-linejoin:round;stroke-miterlimit:10;}
</style><g
     style="fill:#4d4d4d"
     transform="translate(-2,-1.9999999)"
     id="g32"><g
       style="fill:#4d4d4d"
       id="g6"><path
         style="fill:#4d4d4d"
         id="path4"
         d="m 40.045654,26.111084 c -0.9375,0 -1.874023,-0.356445 -2.58789,-1.068359 -0.692383,-0.692383 -1.073243,-1.611328 -1.073243,-2.589844 0,-0.977539 0.381836,-1.896485 1.073243,-2.587891 1.428711,-1.427734 3.75,-1.426758 5.176757,0 1.427735,1.426758 1.427735,3.75 0,5.176758 v 0 c -0.713867,0.712891 -1.651367,1.069336 -2.588867,1.069336 z m 9.77e-4,-5.317383 c -0.425781,0 -0.850586,0.16211 -1.174805,0.485352 -0.314453,0.314453 -0.487305,0.731445 -0.487305,1.174805 0,0.443359 0.172852,0.860351 0.486329,1.173828 0.648437,0.646484 1.703125,0.646484 2.349609,0 0.313477,-0.313477 0.486328,-0.730469 0.486328,-1.173828 0,-0.444336 -0.172852,-0.861329 -0.486328,-1.174805 -0.324219,-0.323243 -0.749024,-0.485352 -1.173828,-0.485352 z" /></g><g
       style="fill:#4d4d4d"
       id="g10"><path
         style="fill:#4d4d4d"
         id="path8"
         d="m 30.017334,16.085693 c -0.936523,0 -1.874023,-0.356445 -2.587891,-1.070312 -1.427734,-1.426758 -1.427734,-3.75 0,-5.1767579 1.427735,-1.4248047 3.749024,-1.4267578 5.176758,0 1.427735,1.4267579 1.427735,3.7499999 0,5.1767579 -0.713867,0.713867 -1.651367,1.070312 -2.588867,1.070312 z m 9.76e-4,-5.318359 c -0.425781,0 -0.851562,0.162109 -1.174804,0.485352 -0.647461,0.647461 -0.647461,1.701172 0,2.348632 0.647461,0.645508 1.699219,0.647461 2.348633,0 0.313476,-0.313476 0.486328,-0.730468 0.486328,-1.174804 0,-0.44336 -0.172852,-0.860352 -0.486328,-1.173828 -0.323242,-0.323243 -0.749024,-0.485352 -1.173829,-0.485352 z" /></g><g
       style="fill:#4d4d4d"
       id="g14"><path
         style="fill:#4d4d4d"
         id="path12"
         d="M 29.01831,49.52417 H 5.0007324 c -1.6542969,0 -3,-1.345703 -3,-3 V 22.512451 c 0,-1.654297 1.3457031,-3 3,-3 H 29.018311 c 1.654296,0 2.999999,1.345703 2.999999,3 V 46.52417 c 0,1.654297 -1.345703,3 -3,3 z M 5.0007324,21.512451 c -0.5517578,0 -1,0.448242 -1,1 V 46.52417 c 0,0.551758 0.4482422,1 1,1 H 29.018311 c 0.551757,0 1,-0.448242 1,-1 V 22.512451 c 0,-0.551758 -0.448243,-1 -1,-1 z" /></g><g
       style="fill:#4d4d4d"
       id="g18"><path
         style="fill:#4d4d4d"
         id="path16"
         d="M 30.01831,42.891357 V 22.512451 c 0,-0.551758 -0.448242,-1 -1,-1 H 9.7331543 L 27.89624,3.3522952 C 29.066162,2.185303 30.969482,2.1823733 32.139404,3.3513186 L 49.121826,20.331787 c 1.169922,1.169922 1.169922,3.073243 0,4.243164 L 32.139404,41.553467 c -0.171875,0.171875 -0.374023,0.324219 -0.61914,0.466797 z M 14.561279,19.512451 h 14.457032 c 1.654296,0 3,1.345703 3,3 V 38.846436 L 47.707764,23.160889 c 0.389648,-0.390625 0.389648,-1.024414 0,-1.415039 L 30.725342,4.7663579 C 30.33374,4.377686 29.699951,4.3767095 29.310303,4.7673345 Z" /></g><g
       style="fill:#4d4d4d"
       id="g22"><path
         style="fill:#4d4d4d"
         id="path20"
         d="m 17.009522,38.178467 c -2.018555,0 -3.661133,-1.641602 -3.661133,-3.660156 0,-2.018555 1.642578,-3.660157 3.661133,-3.660157 2.018554,0 3.661132,1.641602 3.661132,3.660157 0,2.018554 -1.642578,3.660156 -3.661132,3.660156 z m 0,-5.320313 c -0.916016,0 -1.661133,0.745118 -1.661133,1.660157 0,0.915039 0.745117,1.660156 1.661133,1.660156 0.916015,0 1.661132,-0.745117 1.661132,-1.660156 0,-0.915039 -0.745117,-1.660157 -1.661132,-1.660157 z" /></g><g
       style="fill:#4d4d4d"
       id="g26"><path
         style="fill:#4d4d4d"
         id="path24"
         d="m 24.100342,45.26831 c -2.018555,0 -3.660157,-1.641601 -3.660157,-3.660156 0,-2.018554 1.641602,-3.660156 3.660157,-3.660156 2.018554,0 3.661133,1.641602 3.661133,3.660156 0,2.018555 -1.642578,3.660156 -3.661133,3.660156 z m 0,-5.320312 c -0.915039,0 -1.660157,0.745117 -1.660157,1.660156 0,0.915039 0.745118,1.660157 1.660157,1.660157 0.916015,0 1.661133,-0.745118 1.661133,-1.660157 0,-0.915039 -0.745118,-1.660156 -1.661133,-1.660156 z" /></g><g
       style="fill:#4d4d4d"
       id="g30"><path
         style="fill:#4d4d4d"
         id="path28"
         d="m 9.9187012,31.0896 c -2.0185547,0 -3.6611328,-1.642579 -3.6611328,-3.661133 0,-2.018555 1.6425781,-3.660157 3.6611328,-3.660157 2.0185548,0 3.6611328,1.641602 3.6611328,3.660157 0,2.018554 -1.642578,3.661133 -3.6611328,3.661133 z m 0,-5.32129 c -0.9160156,0 -1.6611328,0.745118 -1.6611328,1.660157 0,0.916015 0.7451172,1.661133 1.6611328,1.661133 0.9160158,0 1.6611328,-0.745118 1.6611328,-1.661133 0,-0.915039 -0.745117,-1.660157 -1.6611328,-1.660157 z" /></g></g></svg>