<?xml version="1.0" encoding="UTF-8" standalone="no"?>
<svg
   xmlns:dc="http://purl.org/dc/elements/1.1/"
   xmlns:cc="http://creativecommons.org/ns#"
   xmlns:rdf="http://www.w3.org/1999/02/22-rdf-syntax-ns#"
   xmlns:svg="http://www.w3.org/2000/svg"
   xmlns="http://www.w3.org/2000/svg"
   xmlns:sodipodi="http://sodipodi.sourceforge.net/DTD/sodipodi-0.dtd"
   xmlns:inkscape="http://www.inkscape.org/namespaces/inkscape"
   version="1.1"
   x="0px"
   y="0px"
   viewBox="0 0 100 100"
   id="svg10"
   sodipodi:docname="flower.svg"
   width="100"
   height="100"
   inkscape:version="0.92.4 (unknown)">
  <metadata
     id="metadata16">
    <rdf:RDF>
      <cc:Work
         rdf:about="">
        <dc:format>image/svg+xml</dc:format>
        <dc:type
           rdf:resource="http://purl.org/dc/dcmitype/StillImage" />
        <dc:title />
      </cc:Work>
    </rdf:RDF>
  </metadata>
  <defs
     id="defs14" />
  <sodipodi:namedview
     pagecolor="#ffffff"
     bordercolor="#666666"
     borderopacity="1"
     objecttolerance="10"
     gridtolerance="10"
     guidetolerance="10"
     inkscape:pageopacity="0"
     inkscape:pageshadow="2"
     inkscape:window-width="1869"
     inkscape:window-height="1019"
     id="namedview12"
     showgrid="false"
     inkscape:zoom="1.888"
     inkscape:cx="-189.93644"
     inkscape:cy="62.5"
     inkscape:window-x="51"
     inkscape:window-y="27"
     inkscape:window-maximized="1"
     inkscape:current-layer="svg10" />
  <g
     transform="translate(-2.25e-4,-952.3644)"
     id="g4"
     style="fill:#ffffff">
    <path
       style="color:#000000;text-indent:0;text-transform:none;direction:ltr;baseline-shift:baseline;fill:#ffffff;enable-background:accumulate"
       d="m 49.953,960.13 c -4.9816,0.023 -8.0901,2.516 -9.375,6.125 -1.2849,3.609 -1.0117,8.209 -0.062,13.031 0.1005,0.5105 0.1971,1.0481 0.3125,1.5625 -0.6634,-1.0697 -1.356,-2.1197 -2.0625,-3.125 -2.826,-4.021 -5.9736,-7.4316 -9.4687,-9 -0.8738,-0.3921 -1.7727,-0.6349 -2.6875,-0.75 -2.7445,-0.3451 -5.5905,0.6265 -8.1875,3.3125 -3.5243,3.6878 -4.0177,7.6555 -2.375,11.094 1.6427,3.4383 5.1254,6.3815 9.25,9 0.484,0.3073 0.9677,0.609 1.4687,0.9062 -0.094,-0.019 -0.1877,-0.044 -0.2812,-0.062 -2.4111,-0.4746 -4.7615,-0.7529 -6.9688,-0.7812 -2.2072,-0.028 -4.258,0.2013 -6.0625,0.8437 -3.609,1.285 -6.1015,4.3935 -6.125,9.3751 0.01,5.101 2.4354,8.3093 6,9.6562 3.5646,1.3468 8.1163,1.0869 12.906,0.125 0.1546,-0.031 0.3136,-0.061 0.4687,-0.094 -0.4798,0.2854 -0.9422,0.5491 -1.4062,0.8437 -4.1246,2.6184 -7.6073,5.593 -9.25,9.0313 -1.6427,3.4383 -1.1493,7.4059 2.375,11.094 3.4627,3.5813 7.3798,4.0997 10.875,2.5313 3.4951,-1.5684 6.6427,-4.9477 9.4687,-8.9688 0.8984,-1.2783 1.7662,-2.6238 2.5938,-4 -0.3084,1.199 -0.6103,2.3765 -0.8438,3.5625 -0.9492,4.8222 -1.2224,9.4535 0.062,13.062 1.2849,3.6091 4.3934,6.0704 9.375,6.0938 5.101,-0.01 8.3094,-2.4042 9.6563,-5.9688 1.3468,-3.5645 1.0556,-8.1163 0.094,-12.906 -0.2323,-1.1568 -0.5053,-2.3274 -0.8125,-3.5 0.7631,1.2542 1.5529,2.4865 2.375,3.6562 2.8259,4.0211 5.9423,7.4004 9.4375,8.9688 3.4951,1.5684 7.4435,1.05 10.906,-2.5313 3.5243,-3.6878 3.9865,-7.6554 2.3438,-11.094 -1.6427,-3.4383 -5.1255,-6.4129 -9.25,-9.0313 -0.2063,-0.1309 -0.4156,-0.2458 -0.625,-0.375 4.6741,0.9103 9.1074,1.1299 12.594,-0.1875 3.5646,-1.3468 5.9944,-4.524 6,-9.625 2e-4,-0.01 2e-4,-0.021 0,-0.031 -0.024,-4.9816 -2.516,-8.0901 -6.125,-9.3751 -1.8045,-0.6424 -3.8552,-0.8721 -6.0625,-0.8437 -2.11,0.027 -4.3566,0.3104 -6.6562,0.75 0.6295,-0.3678 1.2397,-0.7416 1.8437,-1.125 4.1246,-2.6185 7.6073,-5.5617 9.25,-9 1.6427,-3.4383 1.1805,-7.406 -2.3437,-11.094 -0.01,-1e-4 -0.021,-1e-4 -0.031,0 -2.5971,-2.686 -5.4431,-3.6576 -8.1875,-3.3125 -0.9149,0.1151 -1.8137,0.3579 -2.6875,0.75 -3.4952,1.5684 -6.6428,4.979 -9.4688,9 -1.2643,1.799 -2.4455,3.7579 -3.5625,5.7188 0.4059,-1.4726 0.7708,-2.9536 1.0625,-4.4063 0.9619,-4.7899 1.2531,-9.3416 -0.094,-12.906 -1.3468,-3.5646 -4.5553,-5.9944 -9.6562,-6 z m 0,2 c 4.5272,0 6.6735,1.7556 7.7813,4.6875 1.1077,2.9319 0.9568,7.2033 0.031,11.812 -0.5881,2.9281 -1.4707,5.9019 -2.4375,8.75 -1.6805,-0.6036 -3.4596,-0.9688 -5.3438,-0.9688 -1.8356,0 -3.6098,0.3321 -5.25,0.9063 -0.8863,-2.7339 -1.6947,-5.5851 -2.25,-8.4063 -0.915,-4.6483 -1.097,-9.0064 -0.031,-12 1.0658,-2.9935 3.1197,-4.7605 7.5,-4.7812 z m -24.375,7.6875 c 0.2649,0.01 0.5158,0.021 0.7813,0.062 0.7079,0.1095 1.4002,0.3623 2.125,0.6875 2.899,1.3009 5.9321,4.4052 8.6562,8.2812 2.0736,2.9505 3.9002,6.2242 5.5,9.375 -2.8057,1.4672 -5.1103,3.7516 -6.625,6.5313 -3.2567,-1.4523 -6.5975,-3.1405 -9.625,-5.0625 -3.969,-2.5197 -7.1801,-5.3595 -8.5312,-8.1875 -1.3512,-2.828 -1.1279,-5.5708 2,-8.8438 1.9981,-2.0666 3.8641,-2.8883 5.7187,-2.8437 z m 49.844,0 c 1.8486,-0.045 3.6893,0.7771 5.6875,2.8437 3.1278,3.273 3.3511,6.0158 2,8.8438 -1.3512,2.828 -4.5311,5.6678 -8.5,8.1875 -3.2712,2.0767 -6.93,3.88 -10.438,5.4062 -1.3783,-2.6691 -3.4896,-4.9056 -6.0625,-6.4375 1.6551,-3.2887 3.5749,-6.7176 5.75,-9.8125 2.724,-3.876 5.7259,-6.9803 8.625,-8.2812 0.7247,-0.3252 1.4482,-0.578 2.1562,-0.6875 0.2655,-0.041 0.5172,-0.056 0.7813,-0.062 z m -19,17.969 c 0.2577,0.1105 0.4995,0.2517 0.75,0.375 -0.2484,-0.1263 -0.4945,-0.2615 -0.75,-0.375 z m -6.4375,0.625 c 7.7137,0 13.969,6.255 13.969,13.969 0,7.7137 -6.255,13.938 -13.969,13.938 -7.7138,0 -13.938,-6.2238 -13.938,-13.938 0,-7.7138 6.2237,-13.969 13.938,-13.969 z m -30.5,5.0313 c 2.0416,0.025 4.3008,0.2925 6.625,0.75 3.0458,0.5995 6.1061,1.4914 9.0312,2.4687 -0.6884,1.7849 -1.0937,3.694 -1.0937,5.7188 0,1.6041 0.2468,3.1654 0.6875,4.625 -2.8963,0.9848 -5.9328,1.8716 -8.9063,2.4688 -4.6092,0.9256 -8.8806,1.0762 -11.812,-0.031 -2.9319,-1.1078 -4.6825,-3.254 -4.6875,-7.7812 0.021,-4.3804 1.7878,-6.4343 4.7813,-7.5001 1.4967,-0.5328 3.3333,-0.7435 5.375,-0.7187 z m 61.031,0.3125 c 2.0417,-0.025 3.8783,0.2171 5.375,0.75 2.9855,1.0629 4.7513,3.1126 4.7813,7.4688 0,0.012 -1e-4,0.019 0,0.031 -0.014,4.5031 -1.7632,6.6451 -4.6875,7.75 -2.932,1.1078 -7.2033,0.9572 -11.812,0.031 -2.6694,-0.5361 -5.3744,-1.2924 -8,-2.1563 -0.3308,-0.1543 -0.6406,-0.288 -0.9688,-0.4375 0.4808,-1.5145 0.75,-3.1392 0.75,-4.8125 0,-1.9085 -0.3814,-3.7075 -1,-5.4063 0.097,-0.043 0.1841,-0.082 0.2813,-0.125 2.8079,-0.9256 5.7485,-1.7714 8.6562,-2.3437 2.3242,-0.4575 4.5833,-0.7252 6.625,-0.75 z m -45,15.281 c 1.4076,3.0606 3.766,5.5779 6.6875,7.2187 -1.4976,2.8639 -3.1786,5.7882 -5.0625,8.4688 -2.7241,3.876 -5.7572,7.0116 -8.6562,8.3125 -2.8991,1.3009 -5.5802,1.0241 -8.625,-2.125 -3.1093,-3.264 -3.3484,-6.0217 -2,-8.8438 1.3511,-2.8281 4.5622,-5.6678 8.5312,-8.1875 2.8727,-1.8237 6.0284,-3.4414 9.125,-4.8437 z m 28.906,0.094 c 0.3677,0.1252 0.7207,0.2526 1.0937,0.375 2.7775,1.2925 5.5602,2.7468 8.125,4.375 3.969,2.5197 7.1801,5.3594 8.5313,8.1875 1.3483,2.8221 1.1092,5.5798 -2,8.8438 -3.0448,3.1491 -5.7572,3.4259 -8.6563,2.125 -2.8991,-1.3009 -5.9009,-4.4365 -8.625,-8.3125 -1.8841,-2.6808 -3.592,-5.6002 -5.0937,-8.4688 2.8892,-1.6242 5.2087,-4.1147 6.625,-7.125 z m -7.0938,7.375 c -0.3376,0.1769 -0.6795,0.3457 -1.0312,0.5 0.3478,-0.1502 0.6966,-0.3262 1.0312,-0.5 z m -1.9687,0.875 c 0.9625,2.8368 1.8201,5.8003 2.4062,8.7188 0.9256,4.6092 1.0765,8.8806 -0.031,11.812 -1.1078,2.9319 -3.2541,4.6825 -7.7812,4.6875 -4.3804,-0.021 -6.4343,-1.7879 -7.5,-4.7813 -1.0658,-2.9935 -0.8838,-7.3204 0.031,-11.969 0.5578,-2.8338 1.3567,-5.6936 2.25,-8.4375 1.6411,0.5716 3.4131,0.9062 5.25,0.9062 1.8923,0 3.6884,-0.3324 5.375,-0.9375 z"
       id="path2"
       inkscape:connector-curvature="0" />
  </g>
</svg>
